<?xml version="1.0" encoding="UTF-8"?>
<!DOCTYPE svg PUBLIC "-//W3C//DTD SVG 1.1//EN" "http://www.w3.org/Graphics/SVG/1.1/DTD/svg11.dtd">
<svg xmlns="http://www.w3.org/2000/svg" version="1.1" width="126px" height="150px" style="shape-rendering:geometricPrecision; text-rendering:geometricPrecision; image-rendering:optimizeQuality; fill-rule:evenodd; clip-rule:evenodd" xmlns:xlink="http://www.w3.org/1999/xlink">
<g><path style="opacity:1" fill="#fe6000" d="M 63.5,15.5 C 72.2443,24.6563 79.2443,34.9896 84.5,46.5C 78.0428,45.9749 73.5428,48.6416 71,54.5C 70.3333,67.5 70.3333,80.5 71,93.5C 75.1551,101.546 81.3218,103.546 89.5,99.5C 87.77,109.754 85.1033,119.754 81.5,129.5C 70.9478,131.509 60.2811,132.009 49.5,131C 46.135,130.495 43.135,129.328 40.5,127.5C 37.868,118.305 35.868,108.972 34.5,99.5C 49.7407,104.1 56.2407,98.4331 54,82.5C 50.8333,80 47.6667,77.5 44.5,75C 47.5617,73.6073 50.7284,72.4406 54,71.5C 54.6667,65.8333 54.6667,60.1667 54,54.5C 50.9094,47.872 45.7427,45.372 38.5,47C 36.3083,47.926 34.3083,49.0927 32.5,50.5C 34.0857,39.7442 37.0857,29.4109 41.5,19.5C 48.3934,16.4602 55.7267,15.1269 63.5,15.5 Z"/></g>
<g><path style="opacity:1" fill="#fe8700" d="M 63.5,15.5 C 93.6913,17.5255 112.525,33.1922 120,62.5C 123.654,94.5475 110.82,116.881 81.5,129.5C 85.1033,119.754 87.77,109.754 89.5,99.5C 91.7082,98.1064 93.2082,96.1064 94,93.5C 94.6667,89.5 94.6667,85.5 94,81.5C 91.4112,79.7888 88.9112,77.9555 86.5,76C 88.9552,74.6884 91.4552,73.5218 94,72.5C 94.6667,66.5 94.6667,60.5 94,54.5C 92.5055,49.8382 89.3388,47.1715 84.5,46.5C 79.2443,34.9896 72.2443,24.6563 63.5,15.5 Z"/></g>
<g><path style="opacity:1" fill="#df3f00" d="M 41.5,19.5 C 37.0857,29.4109 34.0857,39.7442 32.5,50.5C 32.2914,51.9217 31.7914,53.255 31,54.5C 30.3333,67.5 30.3333,80.5 31,93.5C 31.926,95.6917 33.0927,97.6917 34.5,99.5C 35.868,108.972 37.868,118.305 40.5,127.5C 16.7172,117.81 4.71719,99.9765 4.5,74C 4.7837,47.5858 17.117,29.4191 41.5,19.5 Z"/></g>
<g><path style="opacity:1" fill="#000000" d="M 34.5,99.5 C 33.0927,97.6917 31.926,95.6917 31,93.5C 30.3333,80.5 30.3333,67.5 31,54.5C 31.7914,53.255 32.2914,51.9217 32.5,50.5C 34.3083,49.0927 36.3083,47.926 38.5,47C 45.7427,45.372 50.9094,47.872 54,54.5C 54.6667,60.1667 54.6667,65.8333 54,71.5C 50.7284,72.4406 47.5617,73.6073 44.5,75C 47.6667,77.5 50.8333,80 54,82.5C 56.2407,98.4331 49.7407,104.1 34.5,99.5 Z"/></g>
<g><path style="opacity:1" fill="#000000" d="M 84.5,46.5 C 89.3388,47.1715 92.5055,49.8382 94,54.5C 94.6667,60.5 94.6667,66.5 94,72.5C 91.4552,73.5218 88.9552,74.6884 86.5,76C 88.9112,77.9555 91.4112,79.7888 94,81.5C 94.6667,85.5 94.6667,89.5 94,93.5C 93.2082,96.1064 91.7082,98.1064 89.5,99.5C 81.3218,103.546 75.1551,101.546 71,93.5C 70.3333,80.5 70.3333,67.5 71,54.5C 73.5428,48.6416 78.0428,45.9749 84.5,46.5 Z"/></g>
</svg>
