<?xml version="1.0" encoding="UTF-8"?>
<!DOCTYPE svg PUBLIC "-//W3C//DTD SVG 1.1//EN" "http://www.w3.org/Graphics/SVG/1.1/DTD/svg11.dtd">
<svg xmlns="http://www.w3.org/2000/svg" version="1.1" width="370px" height="80px" style="shape-rendering:geometricPrecision; text-rendering:geometricPrecision; image-rendering:optimizeQuality; fill-rule:evenodd; clip-rule:evenodd" xmlns:xlink="http://www.w3.org/1999/xlink">
<g><path style="opacity:0.815" fill="#000000" d="M 296.5,0.5 C 302.836,1.02843 309.003,2.36176 315,4.5C 317.327,2.84847 319.827,1.51514 322.5,0.5C 322.5,9.16667 322.5,17.8333 322.5,26.5C 321.325,26.719 320.325,26.3857 319.5,25.5C 316.902,12.7127 309.236,6.54599 296.5,7C 286.186,12.9509 285.853,19.6175 295.5,27C 304.762,32.2123 313.595,38.0456 322,44.5C 330.844,58.312 328.01,69.1453 313.5,77C 304.063,79.1122 294.729,78.6122 285.5,75.5C 283.227,77.4129 280.561,78.4129 277.5,78.5C 277.5,69.8333 277.5,61.1667 277.5,52.5C 278.822,52.33 279.989,52.6634 281,53.5C 284.4,68.5977 293.567,74.7643 308.5,72C 317.395,64.6985 317.062,57.3651 307.5,50C 297.367,44.8514 288.201,38.3514 280,30.5C 274.326,14.1731 279.826,4.17311 296.5,0.5 Z"/></g>
<g><path style="opacity:0.79" fill="#000000" d="M 11.5,2.5 C 23.3282,2.02273 34.9949,2.52273 46.5,4C 43.2744,5.42695 40.1078,6.92695 37,8.5C 35.4319,24.1265 35.0986,39.7932 36,55.5C 37.0874,66.8996 43.4207,72.8996 55,73.5C 61.0592,73.258 66.5592,71.4247 71.5,68C 74.2308,65.3741 76.0642,62.2074 77,58.5C 78.9172,41.8241 78.9172,25.1574 77,8.5C 74.0655,6.80726 70.8989,5.80726 67.5,5.5C 67.5,4.5 67.5,3.5 67.5,2.5C 76.8333,2.5 86.1667,2.5 95.5,2.5C 95.5,3.5 95.5,4.5 95.5,5.5C 91.3499,5.40131 87.8499,6.73464 85,9.5C 84.6667,24.5 84.3333,39.5 84,54.5C 81.0179,71.4281 70.8512,79.4281 53.5,78.5C 42.0562,79.4177 32.8895,75.4177 26,66.5C 24.6011,63.6366 23.6011,60.6366 23,57.5C 22.6667,41.8333 22.3333,26.1667 22,10.5C 21.5348,9.06919 20.7014,7.90252 19.5,7C 16.8323,6.43296 14.1656,5.93296 11.5,5.5C 11.5,4.5 11.5,3.5 11.5,2.5 Z"/></g>
<g><path style="opacity:0.794" fill="#000000" d="M 97.5,2.5 C 105.174,2.33365 112.841,2.50031 120.5,3C 135.667,20.1667 150.833,37.3333 166,54.5C 166.667,40.1667 166.667,25.8333 166,11.5C 165.727,9.89881 165.227,8.39881 164.5,7C 161.607,5.85123 158.607,5.35123 155.5,5.5C 155.5,4.5 155.5,3.5 155.5,2.5C 165.167,2.5 174.833,2.5 184.5,2.5C 184.5,3.5 184.5,4.5 184.5,5.5C 181.059,5.30108 177.726,5.80108 174.5,7C 173.809,8.06743 173.309,9.23409 173,10.5C 172.828,33.0727 172.328,55.5727 171.5,78C 170.004,78.5074 168.837,78.0074 168,76.5C 151.667,57.8333 135.333,39.1667 119,20.5C 118.333,36.1667 118.333,51.8333 119,67.5C 119.36,69.4211 120.194,71.0878 121.5,72.5C 124.391,73.0056 127.058,74.0056 129.5,75.5C 128.975,76.1924 128.308,76.6924 127.5,77C 118.84,77.4998 110.173,77.6664 101.5,77.5C 101.33,76.1779 101.663,75.0113 102.5,74C 108.051,74.444 111.217,71.944 112,66.5C 112.667,48.8333 112.667,31.1667 112,13.5C 108.595,8.37837 103.762,5.7117 97.5,5.5C 97.5,4.5 97.5,3.5 97.5,2.5 Z"/></g>
<g><path style="opacity:0.786" fill="#000000" d="M 187.5,2.5 C 198.833,2.5 210.167,2.5 221.5,2.5C 221.5,3.5 221.5,4.5 221.5,5.5C 216.033,4.95227 212.867,7.2856 212,12.5C 211.267,28.8542 211.601,45.1875 213,61.5C 218.899,72.138 227.732,75.638 239.5,72C 246.667,70.1667 251.167,65.6667 253,58.5C 254.917,41.8241 254.917,25.1574 253,8.5C 250.066,6.80726 246.899,5.80726 243.5,5.5C 243.5,4.5 243.5,3.5 243.5,2.5C 252.833,2.5 262.167,2.5 271.5,2.5C 271.5,3.5 271.5,4.5 271.5,5.5C 267.35,5.40131 263.85,6.73464 261,9.5C 260.667,24.5 260.333,39.5 260,54.5C 257.018,71.4281 246.851,79.4281 229.5,78.5C 218.056,79.4177 208.89,75.4177 202,66.5C 200.601,63.6366 199.601,60.6366 199,57.5C 198.667,41.8333 198.333,26.1667 198,10.5C 197.535,9.06919 196.701,7.90252 195.5,7C 192.832,6.43296 190.166,5.93296 187.5,5.5C 187.5,4.5 187.5,3.5 187.5,2.5 Z"/></g>
<g><path style="opacity:0.794" fill="#000000" d="M 343.5,65.5 C 350.88,65.043 353.713,68.3763 352,75.5C 347.132,79.911 343.132,79.2443 340,73.5C 339.777,70.2754 340.943,67.6087 343.5,65.5 Z"/></g>
</svg>
