<?xml version="1.0" encoding="UTF-8"?>
<!DOCTYPE svg PUBLIC "-//W3C//DTD SVG 1.1//EN" "http://www.w3.org/Graphics/SVG/1.1/DTD/svg11.dtd">
<svg xmlns="http://www.w3.org/2000/svg" version="1.1" width="370px" height="80px" style="shape-rendering:geometricPrecision; text-rendering:geometricPrecision; image-rendering:optimizeQuality; fill-rule:evenodd; clip-rule:evenodd" xmlns:xlink="http://www.w3.org/1999/xlink">
<g><path style="opacity:0.886" fill="#eaeaea" d="M 306.5,79.5 C 304.5,79.5 302.5,79.5 300.5,79.5C 295.054,77.5576 289.387,76.391 283.5,76C 282.29,77.0391 281.29,78.2058 280.5,79.5C 279.833,79.5 279.167,79.5 278.5,79.5C 277.529,70.5839 277.196,61.5839 277.5,52.5C 279.39,52.2965 280.89,52.9632 282,54.5C 284.425,66.9497 291.925,73.1163 304.5,73C 313.213,71.0558 316.38,65.8891 314,57.5C 312.542,55.04 310.709,52.8734 308.5,51C 299.238,45.7877 290.405,39.9544 282,33.5C 273.089,15.3218 278.589,4.32185 298.5,0.5C 304.126,1.32007 309.626,2.6534 315,4.5C 317.363,4.47252 318.863,3.30585 319.5,1C 320.5,0.333333 321.5,0.333333 322.5,1C 323.833,9.33333 323.833,17.6667 322.5,26C 321.365,26.7494 320.365,26.5827 319.5,25.5C 316.647,11.4415 308.314,5.60814 294.5,8C 286.595,13.8153 286.595,19.8153 294.5,26C 304.781,31.388 314.281,37.888 323,45.5C 330.309,57.0717 328.475,66.905 317.5,75C 313.947,77.1208 310.28,78.6208 306.5,79.5 Z"/></g>
<g><path style="opacity:0.882" fill="#e4e4e4" d="M 58.5,79.5 C 55.5,79.5 52.5,79.5 49.5,79.5C 35.3107,78.6511 26.4774,71.3178 23,57.5C 22.6667,41.8333 22.3333,26.1667 22,10.5C 21.5,8.66667 20.3333,7.5 18.5,7C 16.5,6.66667 14.5,6.33333 12.5,6C 11.6634,4.98873 11.33,3.82207 11.5,2.5C 23.1667,2.5 34.8333,2.5 46.5,2.5C 46.719,3.67504 46.3857,4.67504 45.5,5.5C 42.4921,6.06539 39.6588,7.06539 37,8.5C 36.3333,26.1667 36.3333,43.8333 37,61.5C 40.4463,69.2297 46.4463,73.2297 55,73.5C 61.0592,73.258 66.5592,71.4247 71.5,68C 74.2308,65.3741 76.0642,62.2074 77,58.5C 78.9172,41.8241 78.9172,25.1574 77,8.5C 74.0964,6.77319 70.9297,6.10653 67.5,6.5C 67.5,5.16667 67.5,3.83333 67.5,2.5C 76.8333,2.5 86.1667,2.5 95.5,2.5C 95.67,3.82207 95.3366,4.98873 94.5,6C 92.1667,6.33333 89.8333,6.66667 87.5,7C 86.2986,7.90252 85.4652,9.06919 85,10.5C 84.6667,25.5 84.3333,40.5 84,55.5C 81.1296,69.5384 72.6296,77.5384 58.5,79.5 Z"/></g>
<g><path style="opacity:0.922" fill="#e6e6e6" d="M 119.5,21.5 C 119.217,20.7109 118.717,20.0442 118,19.5C 117.172,34.6723 117.339,49.6723 118.5,64.5C 118.809,70.8088 122.142,74.1422 128.5,74.5C 129.711,75.2739 129.711,76.1072 128.5,77C 119.506,77.4998 110.506,77.6664 101.5,77.5C 101.33,76.1779 101.663,75.0113 102.5,74C 108.051,74.444 111.217,71.944 112,66.5C 112.667,48.8333 112.667,31.1667 112,13.5C 108.942,8.57748 104.442,6.07748 98.5,6C 97.6634,4.98873 97.33,3.82207 97.5,2.5C 105.174,2.33365 112.841,2.50031 120.5,3C 135.667,20.1667 150.833,37.3333 166,54.5C 166.667,40.1667 166.667,25.8333 166,11.5C 165.781,10.062 165.281,8.72865 164.5,7.5C 161.891,6.7695 159.224,6.2695 156.5,6C 155.663,4.98873 155.33,3.82207 155.5,2.5C 165.167,2.5 174.833,2.5 184.5,2.5C 184.64,4.12377 183.973,5.29044 182.5,6C 179.833,6.33333 177.167,6.66667 174.5,7C 173.751,8.73369 173.251,10.567 173,12.5C 172.667,34.1667 172.333,55.8333 172,77.5C 171.586,77.9574 171.086,78.2907 170.5,78.5C 153.136,59.8037 136.136,40.8037 119.5,21.5 Z"/></g>
<g><path style="opacity:0.889" fill="#e4e4e4" d="M 234.5,79.5 C 231.5,79.5 228.5,79.5 225.5,79.5C 211.311,78.6511 202.477,71.3178 199,57.5C 198.667,41.8333 198.333,26.1667 198,10.5C 197.5,8.66667 196.333,7.5 194.5,7C 192.5,6.66667 190.5,6.33333 188.5,6C 187.663,4.98873 187.33,3.82207 187.5,2.5C 199.081,2.17887 210.581,2.51221 222,3.5C 222.688,4.33172 222.521,4.99839 221.5,5.5C 218.492,6.06539 215.659,7.06539 213,8.5C 212.333,26.1667 212.333,43.8333 213,61.5C 216.446,69.2297 222.446,73.2297 231,73.5C 237.059,73.258 242.559,71.4247 247.5,68C 250.231,65.3741 252.064,62.2074 253,58.5C 254.917,41.8241 254.917,25.1574 253,8.5C 250.096,6.77319 246.93,6.10653 243.5,6.5C 243.5,5.16667 243.5,3.83333 243.5,2.5C 252.833,2.5 262.167,2.5 271.5,2.5C 271.67,3.82207 271.337,4.98873 270.5,6C 268.167,6.33333 265.833,6.66667 263.5,7C 262.299,7.90252 261.465,9.06919 261,10.5C 260.667,25.5 260.333,40.5 260,55.5C 259.208,63.255 255.708,69.4217 249.5,74C 244.566,76.3631 239.566,78.1965 234.5,79.5 Z"/></g>
<g><path style="opacity:0.02" fill="#000000" d="M 119.5,21.5 C 118.504,35.6569 118.171,49.9903 118.5,64.5C 117.339,49.6723 117.172,34.6723 118,19.5C 118.717,20.0442 119.217,20.7109 119.5,21.5 Z"/></g>
<g><path style="opacity:0.846" fill="#f2f2f2" d="M 346.5,79.5 C 346.167,79.5 345.833,79.5 345.5,79.5C 340.688,77.2078 339.188,73.5411 341,68.5C 346.608,63.9605 350.775,65.1272 353.5,72C 352.301,75.6951 349.968,78.1951 346.5,79.5 Z"/></g>
</svg>
